<?xml version="1.0" standalone="no"?>
<svg xmlns="http://www.w3.org/2000/svg" viewBox="0 0 149.64 29" width="149.64" height="29"><g fill="#5f6b98" color="#5f6b98" transform="translate(0, 0) scale(0.29)"><svg width="100.0" height="100.0" x="0.0" y="0.0" viewBox="0 0 100 100"><path style="" d="M50.049,0L32.336,17.725c0,0,9.938,9.937,19.727,19.727H0v25.086h52.062L32.324,82.275L50.049,100  L100,50L50.049,0z" fill="currentColor"></path></svg></g><line x1="41" y1="1" x2="41" y2="28" stroke="#3f64eb" stroke-linecap="round"></line><path fill="#3f64eb" fill-rule="nonzero" d="M10.99 0.89Q12.24 0.89 13.28 1.40Q14.33 1.92 14.94 2.86Q15.55 3.79 15.55 4.94L15.55 4.94Q15.55 7.99 12.79 8.78L12.79 8.78L12.79 8.88Q15.94 9.60 15.94 13.01L15.94 13.01Q15.94 14.30 15.30 15.30Q14.66 16.30 13.56 16.85Q12.46 17.40 11.14 17.40L11.14 17.40L0 17.40L0 0.89L10.99 0.89ZM5.30 4.51L5.30 7.32L8.95 7.32Q9.48 7.32 9.83 6.95Q10.18 6.58 10.18 6.02L10.18 6.02L10.18 5.78Q10.18 5.26 9.82 4.88Q9.46 4.51 8.95 4.51L8.95 4.51L5.30 4.51ZM5.30 10.73L5.30 13.56L9.34 13.56Q9.86 13.56 10.21 13.19Q10.56 12.82 10.56 12.26L10.56 12.26L10.56 12.02Q10.56 11.47 10.21 11.10Q9.86 10.73 9.34 10.73L9.34 10.73L5.30 10.73ZM23.28 17.40L18.50 17.40L18.50 0L23.28 0L23.28 17.40ZM39.43 17.40L35.52 17.40L35.21 15.48Q34.46 16.51 33.25 17.10Q32.04 17.69 30.70 17.69L30.70 17.69Q28.49 17.69 27.38 16.46Q26.28 15.24 26.28 12.94L26.28 12.94L26.28 4.73L31.06 4.73L31.06 12.36Q31.06 13.18 31.48 13.67Q31.90 14.16 32.66 14.16L32.66 14.16Q33.55 14.16 34.10 13.58Q34.66 13.01 34.66 12.17L34.66 12.17L34.66 4.73L39.43 4.73L39.43 17.40ZM48.89 4.44Q52.37 4.44 54.20 6.07Q56.04 7.70 56.04 11.06L56.04 11.06L56.04 11.88L46.54 11.88Q46.54 13.25 47.15 13.94Q47.76 14.64 49.08 14.64L49.08 14.64Q50.28 14.64 50.84 14.14Q51.41 13.63 51.41 12.79L51.41 12.79L56.04 12.79Q56.04 15.10 54.29 16.39Q52.54 17.69 49.18 17.69L49.18 17.69Q45.65 17.69 43.70 16.04Q41.76 14.40 41.76 11.06L41.76 11.06Q41.76 7.80 43.66 6.12Q45.55 4.44 48.89 4.44L48.89 4.44ZM49.08 7.49Q46.82 7.49 46.56 9.62L46.56 9.62L51.22 9.62Q51.22 8.64 50.65 8.06Q50.09 7.49 49.08 7.49L49.08 7.49ZM75.36 17.40L69.74 17.40L69.05 15.07L63.26 15.07L62.57 17.40L57.14 17.40L63.17 0.89L69.34 0.89L75.36 17.40ZM66.12 5.50L64.37 11.38L67.94 11.38L66.22 5.50L66.12 5.50ZM81.96 17.40L77.18 17.40L77.18 0L81.96 0L81.96 17.40ZM94.13 17.02Q93.14 19.68 91.72 21.06Q90.29 22.44 87.72 22.44L87.72 22.44Q86.16 22.44 84.96 22.01L84.96 22.01L84.96 19.15L86.88 19.15Q88.68 19.15 89.02 17.40L89.02 17.40L83.98 4.73L89.11 4.73L91.54 13.15L91.70 13.15L93.94 4.73L98.64 4.73L94.13 17.02Z" transform="translate(51, 5.8)"></path></svg>